<svg xmlns="http://www.w3.org/2000/svg" xmlns:xlink="http://www.w3.org/1999/xlink" width="52.675" height="52.674" viewBox="0 0 52.675 52.674">
  <defs>
    <clipPath id="clip-path">
      <path id="Tracé_1016" data-name="Tracé 1016" d="M0,12.989H52.675V-39.685H0Z" transform="translate(0 39.685)" fill="none"/>
    </clipPath>
  </defs>
  <g id="Groupe_497" data-name="Groupe 497" transform="translate(52.675 12.989) rotate(180)">
    <g id="Groupe_449" data-name="Groupe 449" transform="translate(0 -39.685)" clip-path="url(#clip-path)">
      <g id="Groupe_446" data-name="Groupe 446" transform="translate(0)">
        <path id="Tracé_1013" data-name="Tracé 1013" d="M6.495,12.989A26.369,26.369,0,0,0,32.832-13.35,26.365,26.365,0,0,0,6.495-39.685,26.367,26.367,0,0,0-19.843-13.35,26.37,26.37,0,0,0,6.495,12.989" transform="translate(19.843 39.685)" fill="#fff"/>
      </g>
      <g id="Groupe_447" data-name="Groupe 447" transform="translate(12.267 12.027)">
        <path id="Tracé_1014" data-name="Tracé 1014" d="M0,3.472a14.079,14.079,0,1,1,14.08,14.08A14.081,14.081,0,0,1,0,3.472" transform="translate(0 10.608)" fill="#ff2d16"/>
      </g>
      <g id="Groupe_448" data-name="Groupe 448" transform="translate(1.252 1.252)">
        <path id="Tracé_1015" data-name="Tracé 1015" d="M12.372,6.185A25.112,25.112,0,0,0-12.713-18.9,25.112,25.112,0,0,0-37.8,6.185,25.114,25.114,0,0,0-12.713,31.271,25.113,25.113,0,0,0,12.372,6.185m-.478,0A24.636,24.636,0,0,1-12.713,30.794,24.636,24.636,0,0,1-37.321,6.185,24.635,24.635,0,0,1-12.713-18.42,24.634,24.634,0,0,1,11.894,6.185" transform="translate(37.799 18.898)" fill="#ff2d16"/>
      </g>
    </g>
    <g id="Groupe_450" data-name="Groupe 450" transform="translate(23.199 1.571)">
      <path id="Tracé_1017" data-name="Tracé 1017" d="M.534,1.2H-1.633L.128-.149l-.908-3.5L1.367-1.029,3.314-2.3,2.7-.149,5.066,1.2H2.188L1.367,4.458Z" transform="translate(1.633 3.653)" fill="#ff2d16"/>
    </g>
    <g id="Groupe_455" data-name="Groupe 455" transform="translate(0 -39.685)" clip-path="url(#clip-path)">
      <g id="Groupe_451" data-name="Groupe 451" transform="translate(10.865 4.267)">
        <path id="Tracé_1018" data-name="Tracé 1018" d="M1.157,2.158a17.107,17.107,0,0,1,21.7.113c2.071-.2,4.669-2.4,4.669-2.4A22.029,22.029,0,0,0-3.534-.244s2.616,2.219,4.691,2.4" transform="translate(3.534 6.594)" fill="#afa09c"/>
      </g>
      <g id="Groupe_452" data-name="Groupe 452" transform="translate(29.658 41.522)">
        <path id="Tracé_1019" data-name="Tracé 1019" d="M.88.425A1.546,1.546,0,0,0-1.337-.408,7.078,7.078,0,0,0-2.5.106l-.192-.6a5.908,5.908,0,0,1,1.419-.634A2.3,2.3,0,0,1,1.913.49,2.078,2.078,0,0,1,.537,3.375C-.984,3.866-1.9,3.132-2.358,1.713l-.07-.219ZM.343,2.779c.749-.243.977-.883.722-1.756l-2.352.761c.275.794.749,1.281,1.63,1" transform="translate(2.69 1.297)" fill="#997f75"/>
      </g>
      <g id="Groupe_453" data-name="Groupe 453" transform="translate(18.67 41.256)">
        <path id="Tracé_1020" data-name="Tracé 1020" d="M.6.057A2.312,2.312,0,0,1,2.33,3.183,2.283,2.283,0,0,1-.714,4.7a6.012,6.012,0,0,1-1.13-.445l.2-.661A5.266,5.266,0,0,0-.8,3.95,1.581,1.581,0,0,0,1.438,2.9,1.649,1.649,0,0,0,.16.653,6.57,6.57,0,0,0-.773.479L-.58-.174A6.039,6.039,0,0,1,.6.057" transform="translate(1.844 0.174)" fill="#997f75"/>
      </g>
      <g id="Groupe_454" data-name="Groupe 454" transform="translate(13.872 38.829)">
        <path id="Tracé_1021" data-name="Tracé 1021" d="M.886.827A1.548,1.548,0,0,0,.14-1.422,7.094,7.094,0,0,0-.988-2l.342-.524a5.956,5.956,0,0,1,1.386.7,2.3,2.3,0,0,1,.743,3.495,2.078,2.078,0,0,1-3.11.741C-2.964,1.539-2.967.364-2.15-.885l.125-.192Zm-2.17,1.061c.658.43,1.3.206,1.82-.54L-1.533-.006c-.445.713-.526,1.387.25,1.894" transform="translate(2.708 2.528)" fill="#997f75"/>
      </g>
    </g>
    <g id="Groupe_456" data-name="Groupe 456" transform="translate(9.617 -2.562)">
      <path id="Tracé_1023" data-name="Tracé 1023" d="M1.33.157-3.453,4.738-4.064,4.1.72-.481Z" transform="translate(4.064 0.481)" fill="#997f75"/>
    </g>
    <g id="Groupe_457" data-name="Groupe 457" transform="translate(7.641 -4.329)">
      <path id="Tracé_1024" data-name="Tracé 1024" d="M1.451.176-3.915,4.055l-.518-.715L.935-.539Z" transform="translate(4.433 0.539)" fill="#997f75"/>
    </g>
    <g id="Groupe_463" data-name="Groupe 463" transform="translate(0 -39.685)" clip-path="url(#clip-path)">
      <g id="Groupe_458" data-name="Groupe 458" transform="translate(6.838 30.729)">
        <path id="Tracé_1025" data-name="Tracé 1025" d="M.789.9a1.546,1.546,0,0,0,.645-2.279A7.028,7.028,0,0,0,.825-2.5L1.4-2.738a5.939,5.939,0,0,1,.751,1.36A2.3,2.3,0,0,1,.811,1.93,2.079,2.079,0,0,1-2.18.8C-2.8-.677-2.14-1.65-.764-2.224l.211-.089ZM-1.6.556c.3.725.96.9,1.809.573l-.953-2.28C-1.512-.811-1.958-.3-1.6.556" transform="translate(2.412 2.738)" fill="#997f75"/>
      </g>
      <g id="Groupe_459" data-name="Groupe 459" transform="translate(5.467 25.269)">
        <path id="Tracé_1026" data-name="Tracé 1026" d="M1.157.22l-2.951.2c-.494.035-1.03.08-.977.872a4.711,4.711,0,0,0,.526,1.477l3.558-.24.058.871-4.632.315-.056-.81.423-.029A3.925,3.925,0,0,1-3.53,1.041,1.318,1.318,0,0,1-2.216-.445L1.1-.671Z" transform="translate(3.534 0.671)" fill="#997f75"/>
      </g>
      <g id="Groupe_460" data-name="Groupe 460" transform="translate(6.114 19.491)">
        <path id="Tracé_1027" data-name="Tracé 1027" d="M1.183.546a2.311,2.311,0,0,1-3.026,1.9A2.283,2.283,0,0,1-3.528-.516a6,6,0,0,1,.381-1.153l.67.159a5.234,5.234,0,0,0-.3.863A1.58,1.58,0,0,0-1.61,1.535,1.648,1.648,0,0,0,.563.136,6.453,6.453,0,0,0,.687-.8l.662.155a6.03,6.03,0,0,1-.166,1.2" transform="translate(3.615 1.669)" fill="#997f75"/>
      </g>
      <g id="Groupe_461" data-name="Groupe 461" transform="translate(7.95 14.499)">
        <path id="Tracé_1028" data-name="Tracé 1028" d="M.51.887a1.547,1.547,0,0,0,2.2-.865,7.059,7.059,0,0,0,.518-1.16l.543.315A5.984,5.984,0,0,1,3.146.6,2.3,2.3,0,0,1-.3,1.53a2.078,2.078,0,0,1-.908-3.066c.8-1.382,1.971-1.448,3.263-.7l.2.114ZM-.668-1.222C-1.061-.541-.8.087-.029.566l1.238-2.14c-.734-.4-1.411-.45-1.877.352" transform="translate(1.557 2.711)" fill="#997f75"/>
      </g>
      <g id="Groupe_462" data-name="Groupe 462" transform="translate(36.332 8.867)">
        <path id="Tracé_1029" data-name="Tracé 1029" d="M.364.061A.911.911,0,0,1,.656,1.4.9.9,0,0,1-.7,1.633a2.343,2.343,0,0,1-.415-.345L-.917,1a2.687,2.687,0,0,0,.3.252.507.507,0,0,0,.822-.149A.507.507,0,0,0,.048.289a3,3,0,0,0-.36-.2l.187-.273A1.939,1.939,0,0,1,.364.061" transform="translate(1.111 0.185)" fill="#fff"/>
      </g>
    </g>
    <g id="Groupe_464" data-name="Groupe 464" transform="translate(34.121 -32.164)">
      <path id="Tracé_1031" data-name="Tracé 1031" d="M.514.159-.314,1.812l-1.257-.629.151-.3.8.4L-.437.92-1,.636-.858.344l.569.285.2-.393L-.927-.182l.153-.305Z" transform="translate(1.571 0.487)" fill="#fff"/>
    </g>
    <g id="Groupe_466" data-name="Groupe 466" transform="translate(0 -39.685)" clip-path="url(#clip-path)">
      <g id="Groupe_465" data-name="Groupe 465" transform="translate(31.695 6.467)">
        <path id="Tracé_1032" data-name="Tracé 1032" d="M.145.207-.086-.631l.551.183.161.7L.842.329l.2-.587L1.52-.1.937,1.659.071,1.369C-.306,1.244-.541,1.016-.4.6A.5.5,0,0,1,.126.237ZM.312,1.1l.248.082L.738.649.49.566C.3.5.181.533.113.739s.007.3.2.361" transform="translate(0.443 0.631)" fill="#fff"/>
      </g>
    </g>
    <g id="Groupe_467" data-name="Groupe 467" transform="translate(29.1 -33.667)">
      <path id="Tracé_1034" data-name="Tracé 1034" d="M.221,0l.5.094L.447,1.569l.55.1-.064.342-1.607-.3.065-.342.555.1Z" transform="translate(0.675)" fill="#fff"/>
    </g>
    <g id="Groupe_468" data-name="Groupe 468" transform="translate(27.511 -33.939)">
      <path id="Tracé_1035" data-name="Tracé 1035" d="M0,.455.508.49.637-1.354l-.51-.037Z" transform="translate(0 1.391)" fill="#fff"/>
    </g>
    <g id="Groupe_469" data-name="Groupe 469" transform="translate(24.775 -33.978)">
      <path id="Tracé_1036" data-name="Tracé 1036" d="M.229.375.207-.118l-.668.032L-.477-.43.191-.461.16-1.123l.507-.024L.752.7-.684.767-.7.418Z" transform="translate(0.7 1.147)" fill="#fff"/>
    </g>
    <g id="Groupe_470" data-name="Groupe 470" transform="translate(22.852 -33.739)">
      <path id="Tracé_1037" data-name="Tracé 1037" d="M0,.021.3,1.844l.5-.082L.5-.063Z" transform="translate(0 0.063)" fill="#fff"/>
    </g>
    <g id="Groupe_471" data-name="Groupe 471" transform="translate(20 -33.349)">
      <path id="Tracé_1038" data-name="Tracé 1038" d="M.342,0,.854,1.776l-1.35.39-.093-.323L.271,1.6l-.113-.39-.609.175-.09-.315L.071.889-.051.467l-.9.26L-1.044.4Z" transform="translate(1.044)" fill="#fff"/>
    </g>
    <g id="Groupe_474" data-name="Groupe 474" transform="translate(0 -39.685)" clip-path="url(#clip-path)">
      <g id="Groupe_472" data-name="Groupe 472" transform="translate(17.373 7.205)">
        <path id="Tracé_1039" data-name="Tracé 1039" d="M.142.087.914-.265l.769,1.68L.91,1.77A.812.812,0,0,1-.322,1.333.854.854,0,0,1,.142.087M.949,1.4l.137-.068L.59.246.448.3c-.4.169-.5.353-.295.8s.407.49.8.3" transform="translate(0.435 0.265)" fill="#fff"/>
      </g>
      <g id="Groupe_473" data-name="Groupe 473" transform="translate(14.621 8.971)">
        <path id="Tracé_1040" data-name="Tracé 1040" d="M.108.041A.963.963,0,0,1,1.446.293a.962.962,0,0,1-.277,1.333.966.966,0,0,1-1.341-.25A.967.967,0,0,1,.108.041m.934,1.4A.729.729,0,1,0,.231.226.737.737,0,0,0,.018,1.246a.735.735,0,0,0,1.025.191M.174.531C.345.6.489.657.608.707L.693.65.477.328.661.2l.577.863-.311.208c-.2.131-.376.146-.506-.046A.3.3,0,0,1,.438.859L-.051.682Zm.7.6.093-.064L.778.778.684.841C.575.914.538,1,.608,1.1s.161.1.271.029" transform="translate(0.33 0.126)" fill="#fff"/>
      </g>
    </g>
    <g id="Groupe_475" data-name="Groupe 475" transform="translate(23.956 -7.389)">
      <path id="Tracé_1042" data-name="Tracé 1042" d="M.437.977H-1.335L.1-.121-.638-2.984,1.117-.84,2.708-1.876,2.2-.121,4.139.977H1.788L1.117,3.642Z" transform="translate(1.335 2.984)" fill="#fff"/>
    </g>
    <g id="Groupe_477" data-name="Groupe 477" transform="translate(0 -39.685)" clip-path="url(#clip-path)">
      <g id="Groupe_476" data-name="Groupe 476" transform="translate(41.133 29.668)">
        <path id="Tracé_1043" data-name="Tracé 1043" d="M.152.417c.4-1.091.937-2.019,2.2-1.579,1.435.5.79,2.156.344,3.435.709.248,1.031.35,1.42-.765A8.243,8.243,0,0,0,4.483-.078l.856.3a9.5,9.5,0,0,1-.393,1.656c-.369,1.083-.909,2.242-2.31,1.753l-3.1-1.082A15.792,15.792,0,0,1,.152.417M1.907,2c.064-.153.211-.577.256-.706.178-.51.3-.972-.305-1.183s-.8.227-.974.737a5.057,5.057,0,0,0-.2.727Z" transform="translate(0.465 1.274)" fill="#ff2d16"/>
      </g>
    </g>
    <g id="Groupe_478" data-name="Groupe 478" transform="translate(40.643 -25.897)">
      <path id="Tracé_1045" data-name="Tracé 1045" d="M1.679.981-3.57,1.8l-.05-.1L.228-1.894-.633-3l-4.5,4.5.746,1.509L2.551,2.1Z" transform="translate(5.13 2.996)" fill="#ff2d16"/>
    </g>
    <g id="Groupe_481" data-name="Groupe 481" transform="translate(0 -39.685)" clip-path="url(#clip-path)">
      <g id="Groupe_479" data-name="Groupe 479" transform="translate(36.942 36.51)">
        <path id="Tracé_1046" data-name="Tracé 1046" d="M.631.924c.4-.261.956-.7,1.261-.386S1.8,1.361,1.5,1.649a7.678,7.678,0,0,1-.9.727l.368.772a10.151,10.151,0,0,0,1.3-1.075C2.906,1.459,3.6.385,2.764-.473,1.977-1.282.936-.574.7-.436.027-.023-.338.308-.658-.019s.084-.887.431-1.225a6.917,6.917,0,0,1,1.281-.93l-.63-.649a8.726,8.726,0,0,0-1.4,1.1c-1.017.99-1.254,2.06-.536,2.8S.108,1.267.631.924" transform="translate(1.928 2.824)" fill="#ff2d16"/>
      </g>
      <g id="Groupe_480" data-name="Groupe 480" transform="translate(42.333 21.14)">
        <path id="Tracé_1047" data-name="Tracé 1047" d="M.015.631A15.753,15.753,0,0,0,.451,2.805L3.7,2.333C5.17,2.119,5.114.841,4.94-.288a9.427,9.427,0,0,0-.413-1.641l-.9.121a8.178,8.178,0,0,1,.4,1.577C4.2.938,3.869,1,3.126,1.1,2.931-.237,2.738-2,1.234-1.784-.088-1.592-.135-.521.015.631M1.386-.429c.634-.092.739.374.818.908.02.137.084.58.1.745l-1.277.186A4.871,4.871,0,0,1,.863.674C.784.14.753-.336,1.386-.429" transform="translate(0.044 1.929)" fill="#ff2d16"/>
      </g>
    </g>
    <g id="Groupe_482" data-name="Groupe 482" transform="translate(42.555 -12.579)">
      <path id="Tracé_1049" data-name="Tracé 1049" d="M.03,0,6.956.646,7.1,1.968-.091,1.3Z" transform="translate(0.091)" fill="#ff2d16"/>
    </g>
    <g id="Groupe_483" data-name="Groupe 483" transform="translate(39.714 -5.171)">
      <path id="Tracé_1050" data-name="Tracé 1050" d="M1.344.769l.913.6L1.766,2.606.627,1.857ZM-3.39-2.351.625.3-.091,1.383-4.107-1.264Z" transform="translate(4.107 2.351)" fill="#ff2d16"/>
    </g>
    <g id="Groupe_486" data-name="Groupe 486" transform="translate(0 -39.685)" clip-path="url(#clip-path)">
      <g id="Groupe_484" data-name="Groupe 484" transform="translate(14.693 17.12)">
        <path id="Tracé_1051" data-name="Tracé 1051" d="M0,.268,3.844,3.721,4,3.67a2.561,2.561,0,0,1,1.208.005l.223.33a4.443,4.443,0,0,0,.836,1.079l.281.122c.187.066.538.19.625.338a.918.918,0,0,1,.121.491,1.512,1.512,0,0,1-.19.715l-.074.135.077.135c.127.227.534,1.049.891,1.775l.636,1.273.036.029c.668.607,1.319,1.092,1.463,1.2A3.656,3.656,0,0,0,12.4,12.76l.665.207.121-.177,1.167-1.812V10.9s.031-1.21.04-1.582l.423-.041.58-.812.515-.084V8.16a9.978,9.978,0,0,1,.372-1.992,8.153,8.153,0,0,0,.257-1.261c.973-.786,5.56-4.63,6.282-5.275a.018.018,0,0,0,.015-.005c-.115-.15-.231-.3-.352-.445-.528.477-5.5,4.652-6.38,5.356l-.1.077-.008.123a6.968,6.968,0,0,1-.26,1.286A11.373,11.373,0,0,0,15.379,7.9l-.289.048-.077.1s-.388.542-.5.7l-.665.065s-.045,1.857-.049,2l-.965,1.5c-.131-.04-.268-.084-.268-.084a3.089,3.089,0,0,1-2-1.282l-.028-.042-.041-.029c-.008-.005-.707-.516-1.412-1.151L8.5,8.547c-.338-.685-.677-1.368-.844-1.683a2.094,2.094,0,0,0,.2-.834,1.441,1.441,0,0,0-.207-.783,1.7,1.7,0,0,0-.916-.571l-.154-.058A5.227,5.227,0,0,1,5.905,3.7c-.244-.377-.305-.469-.409-.52A3.111,3.111,0,0,0,3.991,3.1L.328-.193C.216-.042.106.111,0,.268" transform="translate(0 0.818)" fill="#fff"/>
      </g>
      <g id="Groupe_485" data-name="Groupe 485" transform="translate(14.853 12.028)">
        <path id="Tracé_1052" data-name="Tracé 1052" d="M1.316,2.241c.1.052.166.143.409.52A5.227,5.227,0,0,0,2.4,3.68l.154.058a1.682,1.682,0,0,1,.916.571,1.441,1.441,0,0,1,.207.783c0,.012,0,.024,0,.035s0,.024,0,.036a2.047,2.047,0,0,1-.183.792c.173.325.5.988.828,1.654,0,0,.544,1.091.583,1.169.7.634,1.4,1.145,1.411,1.151l.041.029L6.386,10a3.089,3.089,0,0,0,2,1.282s.137.044.268.084l0-.005A9.2,9.2,0,0,1,7.6,9.753a1.29,1.29,0,0,1-.119-.68c-.491-.265-1.128-.563-1.128-.563a5.393,5.393,0,0,1,.864-.555A8.75,8.75,0,0,0,7.839,3.9a25.076,25.076,0,0,0,1.52-2.222c.042-.065-.228-.487-.163-.557A20.627,20.627,0,0,0,12.67-2.029l2.389-2.6A14.072,14.072,0,0,0-2.514-2.69h0c-.081.081-.158.165-.236.248-.008.007-.015.015-.023.023A14.249,14.249,0,0,0-3.851-1.131L-.189,2.16a3.111,3.111,0,0,1,1.505.081M-4.017-.9c.042-.06.085-.121.129-.181-.044.06-.089.118-.131.179h0" transform="translate(4.02 6.848)" fill="#b11b0f"/>
      </g>
    </g>
  </g>
</svg>
