<svg xmlns="http://www.w3.org/2000/svg" width="158.345" height="18.488" viewBox="0 0 158.345 18.488">
  <g id="logo_swissuniversities" data-name="logo swissuniversities" transform="translate(0 0)">
    <path id="Tracé_1848" data-name="Tracé 1848" d="M1770.356,952.3c-1.809-.709-2.722-.815-2.722-1.673,0-.706.639-1.093,1.426-1.093a1.4,1.4,0,0,1,1.593,1.544h2.255a3.542,3.542,0,0,0-3.786-3.387c-2.019,0-3.721,1.008-3.721,2.894,0,1.737.978,2.25,2.361,2.786,2.085.815,3.083.879,3.083,1.822,0,.858-.7,1.157-1.615,1.157-1.107,0-1.915-.471-1.915-1.778h-2.255c0,2.358,1.916,3.623,4.041,3.623,2.168,0,3.956-.965,3.956-3.044C1773.057,953.329,1771.739,952.836,1770.356,952.3Z" transform="translate(-1765.06 -944.926)" fill="#dc000c"/>
    <path id="Tracé_1849" data-name="Tracé 1849" d="M1784.435,954.244l-2.234-6.324h-2.275l-2.234,6.324-2.147-6.324h-2.488l3.849,9.99h1.552l2.616-7.46,2.6,7.46h1.55l3.85-9.99h-2.489Z" transform="translate(-1764.161 -944.898)" fill="#dc000c"/>
    <path id="Tracé_1850" data-name="Tracé 1850" d="M1790.481,958.636a1.725,1.725,0,1,0,1.721,1.736A1.718,1.718,0,0,0,1790.481,958.636Z" transform="translate(-1762.394 -943.598)" fill="#dc000c"/>
    <rect id="Rectangle_1079" data-name="Rectangle 1079" width="2.32" height="9.99" transform="translate(26.937 3.022)" fill="#dc000c"/>
    <path id="Tracé_1851" data-name="Tracé 1851" d="M1798.941,952.3c-1.809-.709-2.722-.815-2.722-1.673,0-.706.636-1.093,1.425-1.093a1.4,1.4,0,0,1,1.594,1.544h2.255a3.542,3.542,0,0,0-3.786-3.387c-2.021,0-3.722,1.008-3.722,2.894,0,1.737.979,2.25,2.362,2.786,2.085.815,3.083.879,3.083,1.822,0,.858-.7,1.157-1.614,1.157-1.108,0-1.916-.471-1.916-1.778h-2.255c0,2.358,1.916,3.623,4.043,3.623,2.168,0,3.954-.965,3.954-3.044C1801.642,953.329,1800.323,952.836,1798.941,952.3Z" transform="translate(-1761.847 -944.926)" fill="#dc000c"/>
    <path id="Tracé_1852" data-name="Tracé 1852" d="M1807.679,952.3c-1.808-.709-2.721-.815-2.721-1.673,0-.706.637-1.093,1.425-1.093a1.4,1.4,0,0,1,1.594,1.544h2.254a3.542,3.542,0,0,0-3.786-3.387c-2.019,0-3.721,1.008-3.721,2.894,0,1.737.979,2.25,2.362,2.786,2.084.815,3.083.879,3.083,1.822,0,.858-.7,1.157-1.615,1.157-1.106,0-1.916-.471-1.916-1.778h-2.255c0,2.358,1.915,3.623,4.042,3.623,2.168,0,3.956-.965,3.956-3.044C1810.381,953.329,1809.063,952.836,1807.679,952.3Z" transform="translate(-1760.865 -944.926)" fill="#dc000c"/>
    <path id="Tracé_1853" data-name="Tracé 1853" d="M1818.471,953.086c0,1.714-.765,3.023-2.382,3.023-1.659,0-2.147-1.309-2.147-3.023V947.92h-2.317v5.938a5.049,5.049,0,0,0,.637,2.958,3.356,3.356,0,0,0,2.978,1.351,3.515,3.515,0,0,0,3.23-1.652v1.394h2.319v-9.99h-2.319Z" transform="translate(-1759.826 -944.898)" fill="#dc000c"/>
    <path id="Tracé_1854" data-name="Tracé 1854" d="M1828.211,947.69a3.517,3.517,0,0,0-3.233,1.651v-1.393h-2.317v9.99h2.317v-5.167c0-1.714.765-3.022,2.383-3.022,1.659,0,2.147,1.307,2.147,3.022v5.167h2.317V952a5.049,5.049,0,0,0-.637-2.958A3.359,3.359,0,0,0,1828.211,947.69Z" transform="translate(-1758.586 -944.926)" fill="#dc000c"/>
    <path id="Tracé_1855" data-name="Tracé 1855" d="M1834.668,958.636a1.725,1.725,0,1,0,1.723,1.736A1.717,1.717,0,0,0,1834.668,958.636Z" transform="translate(-1757.427 -943.598)" fill="#dc000c"/>
    <rect id="Rectangle_1080" data-name="Rectangle 1080" width="2.318" height="9.99" transform="translate(76.094 3.022)" fill="#dc000c"/>
    <path id="Tracé_1856" data-name="Tracé 1856" d="M1842.43,954.565l-2.721-6.645h-2.486l4.422,9.99h1.552l4.487-9.99h-2.49Z" transform="translate(-1756.949 -944.898)" fill="#dc000c"/>
    <path id="Tracé_1857" data-name="Tracé 1857" d="M1856.42,952.193a4.484,4.484,0,0,0-4.592-4.5c-3.128,0-4.89,2.25-4.89,5.252,0,2.721,1.614,5.252,4.955,5.252a4.236,4.236,0,0,0,4.444-3.26H1854a1.978,1.978,0,0,1-2.1,1.308,2.364,2.364,0,0,1-2.6-2.595h7.021A8.493,8.493,0,0,0,1856.42,952.193Zm-7.1-.279a2.429,2.429,0,0,1,4.849,0Z" transform="translate(-1755.857 -944.926)" fill="#dc000c"/>
    <path id="Tracé_1858" data-name="Tracé 1858" d="M1860.042,949.542v-1.608h-2.318v9.99h2.318v-4.309c0-2.486,1.083-3.623,3.06-3.623a3.32,3.32,0,0,1,.917.108v-2.144a2.361,2.361,0,0,0-.917-.149A3.568,3.568,0,0,0,1860.042,949.542Z" transform="translate(-1754.645 -944.912)" fill="#dc000c"/>
    <path id="Tracé_1859" data-name="Tracé 1859" d="M1869.517,952.3c-1.809-.709-2.723-.815-2.723-1.673,0-.706.64-1.093,1.428-1.093a1.394,1.394,0,0,1,1.592,1.544h2.256a3.543,3.543,0,0,0-3.787-3.387c-2.018,0-3.721,1.008-3.721,2.894,0,1.737.979,2.25,2.361,2.786,2.085.815,3.084.879,3.084,1.822,0,.858-.7,1.157-1.616,1.157-1.1,0-1.916-.471-1.916-1.778h-2.254c0,2.358,1.916,3.623,4.041,3.623,2.169,0,3.956-.965,3.956-3.044C1872.218,953.329,1870.9,952.836,1869.517,952.3Z" transform="translate(-1753.914 -944.926)" fill="#dc000c"/>
    <rect id="Rectangle_1081" data-name="Rectangle 1081" width="2.318" height="9.99" transform="translate(120.729 3.022)" fill="#dc000c"/>
    <path id="Tracé_1860" data-name="Tracé 1860" d="M1874.8,958.636a1.725,1.725,0,1,0,1.722,1.736A1.719,1.719,0,0,0,1874.8,958.636Z" transform="translate(-1752.917 -943.598)" fill="#dc000c"/>
    <path id="Tracé_1861" data-name="Tracé 1861" d="M1881.6,954.313V950.2h2.275v-1.951H1881.6v-3.022h-2.317v3.022H1877.6V950.2h1.681v4.651c0,3.366,2.082,3.516,3.21,3.516a11.171,11.171,0,0,0,1.722-.129v-2.058a8.786,8.786,0,0,1-1.169.085C1882.128,956.264,1881.6,956.05,1881.6,954.313Z" transform="translate(-1752.411 -945.225)" fill="#dc000c"/>
    <path id="Tracé_1862" data-name="Tracé 1862" d="M1887,958.636a1.725,1.725,0,1,0,1.723,1.736A1.718,1.718,0,0,0,1887,958.636Z" transform="translate(-1751.544 -943.598)" fill="#dc000c"/>
    <rect id="Rectangle_1082" data-name="Rectangle 1082" width="2.318" height="9.99" transform="translate(134.31 3.022)" fill="#dc000c"/>
    <path id="Tracé_1863" data-name="Tracé 1863" d="M1899.62,952.193a4.485,4.485,0,0,0-4.594-4.5c-3.126,0-4.89,2.25-4.89,5.252,0,2.721,1.615,5.252,4.957,5.252a4.238,4.238,0,0,0,4.443-3.26H1897.2a1.978,1.978,0,0,1-2.1,1.308,2.363,2.363,0,0,1-2.6-2.595h7.019A8.3,8.3,0,0,0,1899.62,952.193Zm-7.1-.279a2.429,2.429,0,0,1,4.848,0Z" transform="translate(-1751.001 -944.926)" fill="#dc000c"/>
    <path id="Tracé_1864" data-name="Tracé 1864" d="M1905.512,952.3c-1.809-.709-2.721-.815-2.721-1.673,0-.706.635-1.093,1.423-1.093a1.4,1.4,0,0,1,1.6,1.544h2.255a3.543,3.543,0,0,0-3.785-3.387c-2.022,0-3.723,1.008-3.723,2.894,0,1.737.979,2.25,2.362,2.786,2.085.815,3.083.879,3.083,1.822,0,.858-.7,1.157-1.618,1.157-1.1,0-1.91-.471-1.91-1.778h-2.254c0,2.358,1.911,3.623,4.038,3.623,2.17,0,3.957-.965,3.957-3.044C1908.213,953.329,1906.894,952.836,1905.512,952.3Z" transform="translate(-1749.868 -944.926)" fill="#dc000c"/>
  </g>
</svg>
